<mxfile host="app.diagrams.net" agent="Mozilla/5.0 (Windows NT 10.0; Win64; x64) AppleWebKit/537.36 (KHTML, like Gecko) Chrome/131.0.0.0 Safari/537.36" version="26.0.6">
  <diagram name="Page-1" id="G5tXUU7XcHrPACgsvGXj">
    <mxGraphModel dx="840" dy="446" grid="1" gridSize="10" guides="1" tooltips="1" connect="1" arrows="1" fold="1" page="1" pageScale="1" pageWidth="850" pageHeight="1100" math="0" shadow="0">
      <root>
        <mxCell id="0" />
        <mxCell id="1" parent="0" />
        <mxCell id="FDOEPw_e3YOts03_lpH0-1" value="" style="rounded=1;whiteSpace=wrap;html=1;" vertex="1" parent="1">
          <mxGeometry x="220" y="70" width="320" height="290" as="geometry" />
        </mxCell>
        <mxCell id="FDOEPw_e3YOts03_lpH0-2" value="cluster: net4255" style="text;html=1;align=center;verticalAlign=middle;whiteSpace=wrap;rounded=0;" vertex="1" parent="1">
          <mxGeometry x="370" y="69" width="130" height="30" as="geometry" />
        </mxCell>
        <mxCell id="FDOEPw_e3YOts03_lpH0-3" value="" style="rounded=1;whiteSpace=wrap;html=1;" vertex="1" parent="1">
          <mxGeometry x="369" y="99" width="150" height="191" as="geometry" />
        </mxCell>
        <mxCell id="FDOEPw_e3YOts03_lpH0-4" value="node:&amp;nbsp;kube-master-3&amp;nbsp;&lt;span style=&quot;color: rgba(0, 0, 0, 0); font-family: monospace; font-size: 0px; text-align: start; text-wrap-mode: nowrap;&quot;&gt;%3CmxGraphModel%3E%3Croot%3E%3CmxCell%20id%3D%220%22%2F%3E%3CmxCell%20id%3D%221%22%20parent%3D%220%22%2F%3E%3CmxCell%20id%3D%222%22%20value%3D%22cluster%3A%20net4255%22%20style%3D%22text%3Bhtml%3D1%3Balign%3Dcenter%3BverticalAlign%3Dmiddle%3BwhiteSpace%3Dwrap%3Brounded%3D0%3B%22%20vertex%3D%221%22%20parent%3D%221%22%3E%3CmxGeometry%20x%3D%22250%22%20y%3D%2275%22%20width%3D%22130%22%20height%3D%2230%22%20as%3D%22geometry%22%2F%3E%3C%2FmxCell%3E%3C%2Froot%3E%3C%2FmxGraphModel%3E&lt;/span&gt;" style="text;html=1;align=center;verticalAlign=middle;whiteSpace=wrap;rounded=0;" vertex="1" parent="1">
          <mxGeometry x="382.5" y="99" width="130" height="30" as="geometry" />
        </mxCell>
        <mxCell id="FDOEPw_e3YOts03_lpH0-5" value="" style="rounded=1;whiteSpace=wrap;html=1;" vertex="1" parent="1">
          <mxGeometry x="389" y="130.88" width="115" height="129.12" as="geometry" />
        </mxCell>
        <mxCell id="FDOEPw_e3YOts03_lpH0-6" value="pod:&amp;nbsp;webnodb&lt;div&gt;7fdc468fc7-qlfhr&amp;nbsp;&lt;span style=&quot;color: rgba(0, 0, 0, 0); font-family: monospace; font-size: 0px; text-align: start; text-wrap-mode: nowrap;&quot;&gt;%3CmxGraphModel%3E%3Croot%3E%3CmxCell%20id%3D%220%22%2F%3E%3CmxCell%20id%3D%221%22%20parent%3D%220%22%2F%3E%3CmxCell%20id%3D%222%22%20value%3D%22cluster%3A%20net4255%22%20style%3D%22text%3Bhtml%3D1%3Balign%3Dcenter%3BverticalAlign%3Dmiddle%3BwhiteSpace%3Dwrap%3Brounded%3D0%3B%22%20vertex%3D%221%22%20parent%3D%221%22%3E%3CmxGeometry%20x%3D%22250%22%20y%3D%2275%22%20width%3D%22130%22%20height%3D%2230%22%20as%3D%22geometry%22%2F%3E%3C%2FmxCell%3E%3C%2Froot%3E%3C%2FmxGraphModel%3E&lt;/span&gt;&lt;/div&gt;" style="text;html=1;align=center;verticalAlign=middle;whiteSpace=wrap;rounded=0;" vertex="1" parent="1">
          <mxGeometry x="340" y="135.88" width="215" height="30" as="geometry" />
        </mxCell>
        <mxCell id="FDOEPw_e3YOts03_lpH0-7" value="deployment" style="text;html=1;align=center;verticalAlign=middle;whiteSpace=wrap;rounded=0;" vertex="1" parent="1">
          <mxGeometry x="709" y="140" width="60" height="30" as="geometry" />
        </mxCell>
        <mxCell id="FDOEPw_e3YOts03_lpH0-8" value="replicaset" style="text;html=1;align=center;verticalAlign=middle;whiteSpace=wrap;rounded=0;" vertex="1" parent="1">
          <mxGeometry x="589" y="140" width="60" height="30" as="geometry" />
        </mxCell>
        <mxCell id="FDOEPw_e3YOts03_lpH0-11" value="" style="shape=image;verticalLabelPosition=bottom;labelBackgroundColor=default;verticalAlign=top;aspect=fixed;imageAspect=0;image=data:image/png,iVBORw0KGgoAAAANSUhEUgAAAjQAAAI0CAYAAAAKi7MDAAAACXBIWXMAAA7EAAAOxAGVKw4bAAAgAElEQVR42u3debTVdb3/8dfn+/3u7x7PxBBdzRxyWdhCb+VEuvQnKzAtKpQLlDgg1k0x0kul2dwtzNJrJWpOOISSYqBlRI6lIUTZzSzNWysizUw4wBn2+N37+/n9cfx+PQct4ex95udjLdflHHMf3Ne19pP39zMYa60AAABGMoe3AAAAEDQAAAAEDQAAAEEDAAAIGgAAAIIGAACAoAEAACBoAAAAQQMAAEDQAAAAEDQAAAAEDQAAIGgAAAAIGgAAAIIGAACAoAEAAAQNAAAAQQMAAEDQAAAAEDQAAICgAQAAIGgAAAAIGgAAAIIGAAAQNAAAAAQNAAAAQQMAAEDQAAAAggYAAICgAQAAIGgAAAAIGgAAQNAAAAAQNAAAAAQNAAAAQQMAAAgaAAAAggYAAICgAQAAIGgAAABBAwAAQNAAAAAQNAAAAAQNAAAgaAAAAAgaAAAAggYAAICgAQAABA0AAABBAwAAQNAAAAAQNAAAgKABAAAgaAAAAAgaAAAAggYAABA0AAAABA0AAABBAwAAQNAAAACCBgAAgKABAAAgaAAAAAgaAABA0AAAABA0AAAABA0AAABBAwAACBoAAACCBgAAgKABAAAgaAAAAEEDAABA0AAAABA0AAAABA0AACBoAAAACBoAAACCBgAAgKABAAAEDQAAAEEDAABA0AAAABA0AACAoAEAACBoAAAACBoAAACCBgAAEDQAAAAEDQAAAEEDAABA0AAAAIIGAACAoAEAACBoAAAACBoAAEDQAAAAEDQAAAAEDQAAAEEDAAAIGgAAAIIGAACAoAEAACBoAAAAQQMAAEDQAAAAEDQAAAAEDQAAIGgAAAAIGgAAAIIGAACAoAEAAAQNAAAAQQMAAEDQAAAAEDQAAICgAQAAIGgAAAAIGgAAAIIGAAAQNAAAAAQNAAAAQQMAAEDQAAAAggYAAICgAQAAIGgAAAAIGgAAQNAAAAAQNAAAAAQNAAAgaAAAAAgaAAAAggYAAICgAQAABA0AAABBAwAAQNAAAAAQNAAAgKABAAAgaAAAAAgaAAAAggYAABA0AAAABA0AAABBAwAAQNAAAACCBgAAgKABAAAgaAAAAAgaAABA0AAAABA0AAAABA0AAABBAwAACBoAAACCBgCAgbF+/Xr72GOPWd4JvBqPtwAAMBxde+219oEHHtDDDz+s9vZ2SZLrumptbbUTJ07USSedpJNPPllHH3204d2CsZbYBQAMH6tWrbIXX3yx/vSnP/V8UJmXe2XXz6xcLqfZs2frpptuImrGOB45AQCGjc9//vN2zpw52rx5s4wxfWImipve369Wq7r55pt14IEH2g0bNvAn9DGMCQ0AYFhYsmSJ/Z//+R9ls1nl8/lXxMyuos8v13UlSclkUmvXrtVxxx3HtIagAQBg8N1www32vPPOU7lcliQlEglVq9XXDJrm5mZ1dXXJWivXdeX7vgqFAkEzBvHICQAw5D796U+rXC5rn3326fnTtnntJvE8T52dnbLWqrW1VbVaTcYYtbW12V/96lf8aZ2gAQBg8HzhC1+w27ZtUzKZ1LPPPivXdVWpVF7zn4smOK7raufOncpmsyoUCurs7NSsWbNE1IwtPHICAAypt7zlLfbPf/6zrLWqVqvyPE/VanW31tCMHz++z5Zua61yuZw6Ozs1ZcoU/fa3v+Xx0xjBhAYAMGR+9atf2c2bNysIAlWrVeVyOVWrVTnO7n08dXV1xb+u1WoKw1CdnZ1qbW3Vk08+qQMOOIA/tRM0AAAMrCeeeEKVSkXpdFqS1N3drWw2qzAMX/Of9Tyvzz8r9SwmlqSdO3cqmUxq8+bNesc73kHUEDQAAAycF154QcYYFYvF+BFT9Gtr7b/8K1pDUywW49cLgiD+da1WkyT9+te/1lFHHUXUEDQAAAyMcrksa63a2trkuq48z1MYhrv9yOlfiYLH93397ne/0+GHH07UEDQAADReS0uLUqmUduzYoVqtpmq1qmQyGU9X6hU9lsrn83r66ad1zDHHEDUEDQAAjTVlypT4xN/okVPvx0b1xlK1WlUikVAmk1E+n9fjjz+uk046iagZhdi2DQAYUuPGjbNhGKpQKMRB47puQ6Y0b3jDG/Tcc8/F1ym4rivHcfSe97xHa9asYUv3KMKEBgAwpGbPnq2Ojg4FQaAgCJTNZhv2yOkf//iHfN9XPp9XKpVSrVaTtVZ33323FixYwJ/oRxEmNACAITdp0iT74osvSpImTpyorVu31v2aiURCQRAomUzKcRxVq9X4cVY0sTnnnHN09dVXM6kZBZjQAACG3DnnnCPP85TJZLR161b5vl/3awZBIN/3VS6XVSwW47NtPM9TPp+X4zi65pprdM455/An+1GACQ0AYFg47bTT7G233Sap51qD6CwaY4yMMXGQZDKZeL1NPaIJjtRzOebSpUuZ1BA0AADUb9q0aXbTpk0KgkDW2jg4XNdVKpVSPp+Pv27UOpvW1lbt3LlTn/rUp3TppZcSNSMUj5wAAMPGQw89ZA499FA5jhM/djLGKJlMKp/Pq7m5WZJ262qE1xK9/s6dO+V5ni677DJdcMEF/CmfoAEAoH7r1683b3/725XP57XvvvvKWqtCoaBUKqXOzs74Vu16hWEYn32TSqUUhqG+853v6Etf+hJRMwLxyAkAMCz9v//3/+zPfvYzNTU1qaurS57nqVqtqrm5WZ2dnQ35GVEchWGolpYWdXZ2ylqrb37zm/r4xz/O4yeCBgCA+h122GH28ccfj9fM5HI5dXd3N+5D8KWFx70XCLe1tWnHjh361re+pcWLFxM1BA0AAPU74IAD7PPPP69kMqmuri5Za+NpTb0x4zhOHEu1Wk2u6yoMw/hn3HLLLfrQhz5E1IwArKEBAAxrf/7zn81+++0Xr5/xfb/umJF6toY7jqMwDOMdU1HMpNNpSdKpp56qm2++mT/5jwBMaAAAI8J+++1nn332WYVhqEQiEYeI4zhxjESPkBoxwfE8T2EYKgxD/fCHP9R73/teJjXDGBMaAMCI8Je//MVMnDhRUt9zaMIwjLdgW2vV1tbWkAlOtVqN4+g//uM/9OCDDzIBIGgAAKjfj370I/3bv/2bSqWScrmcpJ5JSqlUkud5khQfvlevXC4na218B9T06dP16KOPEjUEDQAA9XnHO95h1qxZo7322kvd3d1Kp9OqVqvxuppcLqdKpaJUKlX3z+ru7lYymZQk1Wo1pdNpzZw5U5s2bSJqCBoAAOpz5JFHmpUrVyqbzcbhEgVHd3e32traVCqVGvKzyuWyEomEJKlQKKharWrmzJl67LHHiBqCBgCA+hx77LFmxYoVKhaLchxHtVot3p20Y8eO+ATgekSxFG3vlnoeZ7344os644wziJphhl1OAIARa9WqVXbOnDnaa6+99Pzzz/f8Sf2lrdiNkkqlVCqV5LquEolEPP1505vepD/96U/sfCJoAACo38qVK+2HPvQhSVIymYwfE0Un//ZX72sRfN9XpVKRpPi1jTHaZ599tGXLFqJmGOCREwBgRPvgBz9orr32WqVSKZXLZUmKt3Qnk8n48ZMxJv51tNj3X6nVavGkJ4oZSXEoJRIJ/fWvf9WUKVOYDAwDTGgAAKPCzTffbBcsWKBsNqtaraZSqfSqdzVFj5AaIZvNqlqt6i1veYt+85vfMKkZQkxoAACjwplnnmmWLVumfD6vSqUSX18g9Uxbot1K0fSmXq7rKp/Pq1wu64knntBhhx3GhICgAQCgfosWLTJf+9rXFIahisWiPM+LFwn3ntREcVOPaKu41DP1+e1vf6u3vvWtRA1BAwBA/S688ELzmc98Rq7rKggCNTc3S+q5yiA6TbhRU5pisRivywmCQM8884yOO+44ooagAQCgfl/5ylfMZz/7WUnSzp0740XA0dqZRpxT03uxcalUUktLixzH0SOPPKKPfOQjRM0gY1EwAGDUWrx4sb3xxhtfsfupEdu60+l0PKGJPkuNMWpra9P27dv14Q9/WNdddx0LhQkaAADqt3DhQrt8+fL46943ddf1AfpSyHieF59UHJ1XE+2kOuecc3T11VcTNQQNAAD1mzt3rr3rrruUSqVUKBTiGMlkMioUCn1OF44O56tXFE5nn322rr/+eqJmgLGGBgAw6t1xxx3m5JNPjkPFWitjjAqFgiQpDEO1tLQok8k0JGYkyfd9SdLq1at1wQUXMD0YYExoAABjxowZM+zGjRvlOI46Ojrkuq6SyWQcNp7nyXXdhk5ootOKP/rRj+qKK65gUjNAmNAAAMaM++67zxx88MHq6OhQU1OTwjBUoVCQ53lKJpOqVquqVqsN+Vm1Wk2tra0ql8sKgkDf/OY39ZWvfIUpwgBhQgMAGHOmT59uH3jgAUl9JylBECgMw4YsHE4kEqpWq/EOqGjB8GWXXaYlS5YwqWkwJjQAgDHn/vvvNzNmzJDUcx+TMUblcjk+r8Z13bp/hud5stbGpwlHYXPxxRfriiuuYJrQYExoAABj1tSpU+3GjRvl+76stbLWqlaryXGchmztbm5uVmdnZ7ybKpVKqVKpyHEc3XjjjTr99NOZ1DQIExoAwJi1YcMGc9hhh6lSqaipqSleP9OImHFdV8ViUZJUKBSUTCZVKpXkOI6q1aoWLlyoW265halCgzChAQCMeW9+85vt//3f/2ncuHHavn17n9N/o7UvjuPI932VSqWGnDRsjJHv+7r++ut12mmnMakhaAAAqN+4cePsjh07tNdee+n555+X67pyHEdBEMhxHKXTaeXzeUk962Pq3Q3V+zVWr16tWbNmETUEDQAA9dt7773t888/r0QioTAMVavV+oSH7/tKp9Pq6Oio+2dFpxMbY5RKpXT33XdrxowZRA1BAwBA/RKJhLXWKgzD+LFT70dMve9uqlcqlZLrusrn80qlUlq9erVOPPFEoqY/gchbAADAy4IgMBMmTJC1VnvvvXf0PTU1NUlSvBuqXq7rqlQqxY+xSqWS5s+fr8cee4xJA0EDAED9rrvuOu2///7629/+Ft/J1NXVpdbW1vgSy3rVajW1tLTEX7e1tSmfz+t973ufNm7cSNTsIR45AQDwKu699147c+ZMGWM0YcIEbd26Nf570fkyjRA9zkqn0yoWizLGaJ999tGWLVt49LQHmNAAAPAq3vve95o1a9Yom81q69at8Ym/LS0tDYkZz/Mk9UxqMpmMisWiHMdRU1OT/vrXv+qggw5i4rAHmNAAAPAv3HXXXXbevHnxfU9hGPY5g8YYI2NMvGMp+nXdH9DG6JBDDtFvfvMbJjW7gQkNAAD/wuzZs833vvc9JRIJVSoVBUEg3/eVSCTkeZ4c5+WP0mhIEN0JVQ/f9/XEE0/oqKOOYvKwOwHIhAYAgNd2yy232DPPPFOe58l1XZXL5T4nCvc+r6YRt3VHURMEAZOa3cCEBgCA3XDGGWeYK6+8Uo7jqFwux+HSW+91MY1grZXjOHriiSd05JFHMoEgaAAAqN95551nzj//fCUSiZ4PUceJI6ZarSoMQ7mu+4rQ6a8gCFSr1ZRKpbRp0yYde+yxRA1BAwBA/S699FLzmc98Jl5TU61W48CJThdu1G3dUs9jp3K5LNd1tWnTJp1yyilEzatgDQ0AAP1w7rnn2h/+8Id67rnnlEwmValU1MjP1Ggdzqutx5k/f76++93vsqamFyY0AAD0w9VXX23e/e53y3XdPjETnSxcryhioklNOp1WLpeTJK1YsUJz585lIkHQAABQv+uvv94sXLiwT8xEZ9D0XkeTSqVkTM9AxXGcPlu9X0ulUpEkFYtFdXd3x99ftWqVzjzzTKKGoAEAoH7XXnutOfvssyX13brd+zFRqVSStVae5ymRSDTk4D3XdXX77bfrggsuIGrEGhoAABrilFNOsatXr1YikVCtVlMYhkqn07LWqlQqNfQU4d4SiYQ+8pGPaNmyZWN6TQ0TGgAAGuD73/++mT17toIgUDabldTzmKhUKvV84DpOHDPRvVD18DxP6XRaQRDouuuu02c/+9kxPaEgaAAAaJBVq1aZE044QV1dXXHUROtlwjCMFwxH62Lq+gB3HBWLxfjrr371q/riF784ZqOGR04AADTY9OnT7aOPPqpyuazW1lYVCgVVKhUlk8n4lOFG6h1NV155pc4777wx9/iJoAEAYAAcc8wxdv369X2+Fy0aTiQSfW7srkc2m1U+n1cymVQ6ndbOnTv13e9+V/Pnzx9TUUPQAAAwQI499lj76KOPxjETXWrZCKlUKl6fI728RqepqUldXV269dZbddppp42ZqCFoAAAYQFOmTLG/+93v4jNqom3dUYR4nqdKpdJnF1SjJjgrVqzQqaeeOiaihkXBAAAMoCeffNJMnjw5jpnW1lZJPTudwjB81QXCjbgLyvd9nXXWWbrjjjvGxOSCCQ0AAIOgqanJdnd3x4+GPM+T4zhyXTc+q8ZxHKXTaeXz+Yb93GQyqdtuu02nnHLKqJ7UEDQAAAySvffe2/7973+X67p9Hj31lslkVCgUGvLzfN9XpVJRJpPRPffco3e9612jNmoIGgAABlEqlbJBEMRraqJHTr1DplHbuz3PkzFGQRCora1Nd9xxh6ZPnz4qo4Y1NAAADKK1a9dq7733jncotbS0yBijcrksz/MkqSEx03sKlEgktGPHDp1++ulav379qJxkEDQAAAyiadOmmW9/+9uaMGGCKpWKisWirLWq1WpKpVIN+znR7d5BECgIAjmOoxdeeEFz587Vpk2bRl3U8MgJAIAhsG7dOjtv3jx1dHTEZ8qk02kVi0UZY9SIz+fx48ervb1dktTW1qYdO3ZIkvbee28999xzo+rRE0EDAMAQWbNmjZ07d258oWU+n39FzEQ7oaJzaRp1a/doixoeOQEAMERmzZplVqxYId/3lc/n4zU0Us8OpWjhcBQzvu8rkUjUHTOStHXrVu27776jZqpB0AAAMITmzJljbrvtNklStVrV+PHjJfXcyF2tVuOLJ40xqlar8anC9QqCQM8++6ze+ta3joqoIWgAABhis2fPNtdff73S6bS2bdumZDIpqef27DAM5bquUqlUPJlxXbfun2mtVSaT0VNPPaVDDjlkxEcNQQMAwDBw9tlnm0svvVRSz7btXC4XP4Kq1Woql8txyPyzQ/n2VD6fVyaT0ZNPPqmpU6eO6KghaAAAGCY+9rGPmcsuu0y+76u7u1vVarXPtKZWq8Vf1yuKpWq1qmw2q40bN+qkk04asVFD0AAAMIwsWbLEfOpTn1Jzc7OknkdD2Wy24T+nWq2qqalJlUpF+XxekyZN0n333aeZM2eOyKhh2zYAAMPQueeea1esWKGuri4lk0lVq1XVarX4fqZ6JRKJePdUtGVcklpbWzV16lStXbt2RG3pZkIDAMAwdPXVV5uFCxfG9zpls1kZY1SpVJRKpeS6bnxj9652ZxdUtVqNz7QpFArxrzs6OrRu3TqdccYZI2riwYQGAIBhbP78+fauu+6KJzSS4pOFo3hxHCeOmGhn1GsGwGtEj7VWixYt0rJly0bEpIYJDQAAw9iKFSvM3LlzVavVZIxRLpeLYyYKj1qtJmvtbsfM7kin07rqqqt07rnnjojJBxMaAABGgJNPPtmuW7dO1Wo1vmzyn8XL7twF9VoTmkQiEa/VWbJkiS677LJhPalhQgMAwAiwevVqM336dAVBoKamJllr48dNnuf1CZREIlH3z6tUKsrlcpKkyy+/XF/+8peH9QSECQ0AACPIiSeeaNetW9fne9GdT9GBe42Y0ESLka218c6qr3/96/rkJz85LCc1BA0AACPMMcccY5944gkVCgWFYdivG7h3Z1FwFEvRYuRarabLLrtMS5YsGXZRQ9AAADACTZ482b744ovavn27JMlxHFlrZa2V67pxhPQ3aFKplIrFYrxWx/O8eAHyFVdcofPPP39YRQ1BAwDACPX2t7/d/u///m/8SCiapkQ7ogbyM/6GG27QwoULh03UsCgYAIAR6te//rV529veFj92qlQqampqGpSfffbZZ+vWW28dNlMRJjQAAIxwBx10kP3jH/8oz/NUrVbj//uqH/wvPWqq9/PfdV05jqNbb71V8+bNG/JJDUEDAMAosN9++9ktW7b0WUvzz4JmTxcQ/7PXiS7OXL58uebMmTOkUUPQAAAwSuy///52y5YtfRYF9/6cj6YzjQga6eUrGFzX1X333adp06YNWdSwhgYAgFFi5cqV2muvvVStVuP7naK/orj5V9ObPdHU1BRfwZBKpXTiiSdq/fr1QzYlYUIDAMAosmHDBjtr1iy1t7f3CZiB+rx3XVfSy4f7Pfjggzr66KMHfVJD0AAAMAqj5rjjjotDJgzDhgdN9LgpkUgoCAJJPacLe56n7u7uQQ8aHjkBADDKTJ061dx7771yHCe+idvzvJ4P/pceRdUretzU+wC/IAgUhqFaW1sHfVpC0AAAMArNmDHDrFy5Uo7jyPf9+MLK6NTfRtg1jMIwVBAEqlQqOvDAAwc1anjkBADAKHbffffZE044QalUStZalcvlxobEq5xIHF2XcMQRR+gXv/jFoDx+YkIDAMAoFk1qSqWSHMfRxIkTB/xnhmGobDarTZs26bDDDhuUyQlBAwDAKDdv3jxzxRVXqFQqaevWrQ1//Vdbk1MsFpVIJPT444/rmGOOGfCo4ZETAABjxE033WTPOussZbNZ5fP5AYsZSfGt34lEQqVSSUceeaQ2btw4YI+fBiRoHnvsMZvP5xWG4WteXw4AABqvVqvJ930FQaBMJqNCoSBrrW688Ubdc889DQuZqCN2/TqZTKpcLiuZTMpaq0qlone96126//77ByRqGhI0P/3pT+1tt92mBx54QM8++2yfa8sbsTUMAAD09Vqf347Ts6okuonbWhuHTSO4rvua59tEi4ONMcrlcuru7taMGTO0bt26hsdB3UHzvve9zz7yyCPq6Ojoc3dEMpn8pzd9AgCAoQ2eRtzl9K9EExpJfW7/njhxoiZPnqyf/exnDY2auoJm//33tzt27FBHR4eMMfEzOWttfHIgExoAAAbfa33+DnTQ9N7O3XvgYYxRa2urpk2bprvuuqthkdDvoJk8ebL9wx/+EH+96/723mUGAACGV9AMxqYgY0wcM9ba+BGUJCUSCX3gAx/QnXfe2ZCo6de27RNPPNH+4Q9/UFNTk3zfl+u6qlarccD0vtkTAAAMvl0vphyMiypfLWh6r7PxPC8+sTgIAq1atUqLFy9uyG9mj88+vvPOO+0DDzwg3/fV1dX1qr95Y4wqlQr/NQEAMEZ5nqcwDPs82oraIBp6pFIpLVu2TLVazV511VV1TUL2+JHTcccdZ5966ilt27btFccd7/qbTyQSLAwGAGAIDPU5c70fL+26I8rzPNVqtfjyTM/zdNFFF+m///u/+x01exw0EyZMsO3t7Xr961+vF154QclkUtLLN2z2xjoaAADguq6MMfGxLq7rKgiCPr0QhqE+97nP6XOf+1y/omaP1tCsWrXKtre3q7W1VS+88IIcx1G5XFalUukzlfF9X5KIGQAAhki0BOSf/TXQonNwpJ5D/qInNtGN3JKUTqf7fO+LX/yirrzyyn6NlvZoDc3jjz8eH2EcbcuW+o61ehcXAAAYGkP9yOnVtoX3/j31PuQv+n4Yhvqv//ovWWvt4sWL96i69mhCEwSBgiBQpVJREATxSmUAAIA9USgU+kxootOEjTE6//zztWzZsj0qsj0KmkqlokQiIS60BAAA9fA8T8ViMb7rKbrMMggCWWuVzWb37PX25H/c3NzcZ2EPj5cAAEB/VKvVeJdTFDAdHR2SpOXLl2vBggUD98jpkEMOUalUkjGmz2IfAACAPRWGoarVqtLptPL5vJLJpJYuXbrHMSP1Y9u267o2mtD0XhgMAACw2wHy0ll20REvxhh97nOf05e+9KWB37YtSTNnzoxXLnO9AQAA6I/oMVPUEkuXLu13zPQraD70oQ/Fj5u43gAAAPSH53nK5/Mql8tatGiRLrroosG9+kCSZsyYYR966CElk0kVCgW5rivHcVStVvtcFR49mgIAAIPLWivf9+MdytESkaample9i7HRjDHyfT8+ZDe6CsHzvHhBcBiGWrRokZYtW1b3Ix/T3y3Y48aNszt27FAqlVK5XI5DpvctmgAAYGhks1nl8/l4yNB7wND7ULuBEsWU7/tyHEdBEMS/h1wup+7ubi1evFjf+ta3GrJ+xdRzpsyhhx5qn3766Xgy0/siquhfhrABAGDwWWuVy+VUqVRUqVTkum78ZGWwJBIJGWNUqVTixb/RhOass87SjTfe2LDFuKbeQ/Le+9732t/97nfasmWLpJ6RUnTJ1K7XhgMAgMERhqFc11W1Wo0Pqcvn8zLGqLW1VTt27Bjw38Mb3vAGPffcc/G0yHVdua6rk046SWvWrGnoziLTiFN/H374Ybty5Ur9/Oc/11/+8hcVi0X+SwIAYAhFEeE4jnzfV6lU6vngf2m79EBraWlRR0eHEomEEomECoWCUqmUjj/+eK1du7bh26TNQPxLbdiwwZbLZfm+H5/6BwAABk8YhvJ9X01NTXrmmWe0//77K5lM6vOf/7zWr18fr68ZSNHjJaln3cy///u/69FHHx2QM18M9zIBADA2XHvttXbRokWDugPZ930lk0m95S1v0aZNmwbsADvuLwAAYAy4+uqr7Uc/+lGFYTgo1xe5riup58y6t771rQMaMwQNAABjwDXXXGM//vGPS+rZ/dSoDTvGGKVSqfjrXC4Xn/wbBc3UqVO1YcOGAb9agEdOAACMYqtWrbJz586V67rxdQOdnZ2NjQljNG7cOLW3t0uSxo8fr/b2dh144IH64x//OCj3JDGhAQBglPre975n58yZI9/349N5Ozs75ft+Q14/2g5urY03AQeoyO0AABf5SURBVHmep/b2dh166KGDFjMSExoAAEale+65x86ZM0epVCqOmDAM411HjdB7F1P0qMkYo/33319/+tOfBvUGayY0AACMMnfeeac97bTTZK1VZ2dnfGJwtHYmuqaoHul0WtVqVel0WqlUKr47atKkSYMeMxITGgAARpWHHnrIzp8/X3//+9/7fN/zPFlrVavV+tzzVI/ovqYocCqViqrVqhmKf2+CBgCAUcR1XRuGodLptFzXVXd3d5+/P2nSJP3jH/9oyM+KHjm1trYqn89r/fr1Ovzww4ckaHjkBADAKDFx4kTrOI4cx1GlUlF3d7dyuZzS6bSknonKP/7xD2UymYb8vGQyKUmqVqu69957hyxmCBoAAEaJAw44wG7btk2O4ygMw/g04O7u7viOxejx0O7cuB2dIxPdmG2MecXuqEKhoGw2q6uuukozZswwQ/nv7/GfAAAAI9v48eNtpVKR67qqVCpx1NSj9/UI0fKUaCdTMplUtVpVGIa6/vrr9cEPftAM9XvAhAYAgBHszW9+s83n8+ru7o4vpGzEScDRY6kgCNTc3Kx0Oq1yuaxEIqFyuawwDHX77bcPi5ghaAAAGMGmTJli//a3v6lcLqu5uVnW2nhCU69CoSDXdWWMUWdnp6rVqowxCoJAyWRSV111lebNm2eGy3tB0AAAMAIdddRRdvPmzfH26yAIJPXcp9Sou5pqtZpyuVz8dbSu5utf/7rOOeccM5zeD4IGAIAR5vjjj7e/+MUvVCwW40PyooW/UdjUK7rWoKurS8lkUkEQKJ1Oa+nSpVq8eLEZbu8JQQMAwAhyyCGH2J/97GcaP368wjBUEARqbW2V1LNYt1wux5OUeuTz+XgdTblcViaT0cc+9jF9+tOfNsPxfSFoAAAYIaZNm2affvpp+b6v9vb2eBv1zp07JfVMZxzH6bNDqb+SyaQKhUK8bXvJkiX66le/aobre0PQAAAwAixYsMA+/PDD8VRGevlcmUgYhru9fqb3FCd6bBVNZDzPi/++tVZLlizRl7/8ZTOc3x+uPgAAYJibO3euXbNmjVKplLq6umSMUSM+v1/tdSZOnKitW7fGoXPqqafqpptuMsP9PWJCAwDAMHbmmWfaO++8U9VqVV1dXQ173VwuJ2ttPImJdjNt3bpVzc3NkqTTTz99RMQMQQMAwDB2wQUX2FtuuUWtra19JimNmM5E1x/UajWNGzcuvsSytbVVnZ2dOvvss3XDDTeYkfJe8cgJAIBh6BOf+IS9/PLL42sGooW+jbjW4NW4rqtMJqOuri7NmTNHd9xxhxlJ7xcTGgAAhpmLL77YXn755Ro/frzK5bJqtVp8s3UjtmRLPetnEolEvCC4paVFXV1dmjFjxoiLGYkJDQAAw8qll15qL774Yhlj4qlMS0uLOjo6lMlkFARBww7Pa25uVmdnp1KplEqlko444gj94he/MCPxfSNoAAAYJq666ip73nnnyRgj13Xj+5OstfGheVLP7qN6oyZ6jeh1p0+frvvuu8+M1PeOR04AAAwDV199tb3wwgslKV43I728ADiKGWn3rzdoaWmJf51Op+NLKx3HkTEmft2jjjpqRMeMxIQGAIAh9/3vf9/Onj1biURCjuP0iZf+ymQy8U6mpqameMt3NJmJHjMdfPDB+v3vf29G+ntI0AAAMAxixnXdeM2M7/uvOAW4P3bdEZXL5dTd3a3W1lbt3LlTb3zjG7VlyxYzGt5HHjkBADBE7rnnHjt79uz4/iVjjJLJZENiRuq7I6qtrU3d3d3aa6+9tHPnTr3pTW8aNTEjMaEBAGBIfP/737fz5s2TtTaezHiep2q12pBFv70XESeTSdVqtfhnHXTQQXrmmWfMaHo/mdAAADDI7r33XvuRj3wkfsyUTCaVSCRUrVblum5DtmVXKpV4QhOGYXw43+tf/3rdfPPNo+49ZUIDAMAgevTRR+0HPvABbd++XY7jyFqrdDqtQqEgx3GUyWTiawgawXXdeNu34zjq7u42o/F9ZUIDAMAgWb9+vZ05c6Z27NihXC6nMAxlrVWhUJDv+5Kk7u7u+PTeRvB9X2EYKpPJaO3ataP2vSVoAAAYBI899pidO3euOjo64nDprVKpxDuSdueRUxRA0eRF6lmDE0mlUvFrtbS06JZbbtGxxx5rRuv7yyMnAAAGwRvf+Eb77LPPxhHSiLNmem/vjhYU9zZ+/Hi1t7frJz/5iWbMmGFG8/vr8Z8YAAADa9y4cbb3RKYRMSMpnuj0Pvm39+F87e3tuvvuu0d9zEg8cgIAYEC97nWvs8ViMb7CIJ1ON+y1o4lM723evu+rXC4rl8tp+fLlev/732/GwvtM0AAAMEDe8IY32Pb29viiSUkNOzRPUrwrKpr4+L6vfD4v3/f15S9/WQsWLDBj5b0maAAAGACHH364zefzcl1X+XxeUs86l95XETRCFDOO46hSqSiXy+kb3/iGLrjgAjOW3m/W0AAAMAAx86tf/UrGmD5bsFOpVLwtu97D83a9p8lxHE2YMEELFy7U4sWLzVh7z5nQAADQQO985zvtr3/9a+VyOVlrValUlEgklEgkGnpgnjFGxhi5rivHceR5ns466ywtXbrUjMX3naABAKBBZsyYYTds2BBPYiJBEPSZyOzOdCaRSMTnyriuq2QyKenls2ZqtZpSqZSstUokEjr33HN1ySWXmLH63nMODQAADXDCCSfYDRs2SJK6uroa9rrZbFa1Wk2lUknGmPhm7nQ6rVKpJGutPvGJT+gb3/iGGcvvP2toAACo0/z58+1Pf/rThu5gSqVSKpVK8YLi6GTgSqUi3/fjmFm8ePGYjxmJR04AANTlwx/+sL3tttvi4Oh9/UA9SqVSn8dMQRCoUqnIcZz4wslFixbpW9/6luH/CwQNAAD9duGFF9obbrhBuVwuXjMT3aFUL2OMyuWy0um0jDGy1sp1XRljVCwWtWDBAi1btoyYIWgAAOi/iy++2H79619XS0tLHDOu6zbstuxoOhMtKE4mk0omk6rVapo3b56WL19OzPQOQBYFAwCwZy699FJ70UUXKZFIyBgTb82u1WoKw/AVZ8T0l+/7chxHpVIp3pp9wgkn6Ac/+AExswsmNAAA7IFrrrnGXnTRRWppaVEQBKrVan0Oystmsw2JmUQioUqlolKppLa2NoVhqKOPPpqY+SeY0AAAsJuuvPJKu3jxYrmuq1qtVvfrpdNpFYvF+Ou2tjbt2LFDrusqDENZa9Xc3KzOzk4df/zxeuihh4gZggYAgP77zne+Y88555w4MOrV+7FUMplUGIYKgqBPzIwbN07bt2/X5MmT9dRTTxEzBA0AAP1366232jPOOGNgPohf2sEUnfpbq9VUrVbjc2iIGYIGAICGxUwmk5EkFQoFeZ6narXakNeP7mIKw1C1Wk2O4yidTiufz+vggw/W73//e2JmN7AoGACAf+Kee+6xZ511liSpXC6rUCj0fHg69X98GmOUTqfjO5miNTnjxo1TPp/XQQcdRMwQNAAA1Oeuu+6yJ598smq1mjKZTBwcra2tDbviIFpDE939NGnSJG3btk1TpkzRM888Q8zsSSDyyAkAgL5+/OMf25NPPlnWWpXLZTmOE+846ujoaOjPymQy8TUHxWJRbW1t2r59OzFD0AAA0H8PP/ywnTNnjrZt2ybHceQ4Tp/1MtEi3no5jiNjjGq1mrLZrPL5vMaPH69t27YRM/15P3kLAADosX79ejtr1ixt27ZNUs8joV0X/+5uzLiuGwdQb7tei5DJZJTP5zVu3DitXr2a/yf0ExMaAAAkbdy40Z5wwgnq6uqKb7eua2LQ65yZ3nETbc3u/b9LpVK69957dfzxxzOdIWgAAOi/trY2m8/nJSneQt2ooImmNNFnbvT3olu6f/CDH2jmzJnETD3vN28BAGCsmzRpkt25c6fS6bSq1WpDrjUIw1Ce58ULiqOYMcYokUjEN3OvXbuWmCFoAACoz0EHHWRffPFFua6rzs5ONfLJRe/1M8aY+JFTuVyW53m66aabdOKJJxIzBA0AAP134IEH2ueff17Nzc2q1Wpqbm6W9MqFu/1lrY0fO3meF8dSKpXS5ZdfrjPPPJOYaRCPtwAAMBYdccQRdsuWLfEuplwup87OzoYsCJZ6JjJRzEiKf87kyZM1a9YsLVq0iJhpICY0AIAx5/jjj7e//OUvZYxRMpmUJHV3d8d3NKXT6bp/Ru/pTCKRkLVWyWRS73nPe/TVr36VmGkwdjkBAMaUGTNm2Pvvv78hr+W6bnyhpOu68WQnOjSvd9Rks1mdf/75+spXvkLMDAAeOQEAxoxTTjnF3n///cpkMvFFk40QhqHCMJTv+/I8T+VyOd4p5fu+JOnDH/4wMTOAmNAAAMaEE044wT7yyCOqVCp91rbUK5rSxB+sL01mjDHxKcD/+Z//qe985zvEzABiDQ0AYNSbOXOmfeSRRxQEgVzXfcV1BP0NmShgonU40suH53mep3w+r49+9KPEDEEDAEB95syZYx9++OH4ygFrbRwjjQiaWq2mcrksqefxkjFG6XRaQRBo3rx5uuaaa4gZggYAgP47/fTT7Y9//GOVy2WVy+X45uxGPHKqVCqS+p5ZE50KXC6XtWDBAq1cuZKYGSQsCgYAjEqf/vSn7V133aVisSipZ6IS3aHUiEdO8Qep58VxUyqVlM1m9b73vU/Lly8nZgYRExoAwKizdOlS+7WvfU3FYlG5XE5Sz6Oh6PqBRtzV5Dg9H6GVSiV+XWOMjjvuON1+++3EDEEDAED/XXzxxfYLX/hC/HV3d3f860qlstt3NfU+XM/zeh5oRGtkjDHx96LLJq21mj59un70ox8RM0OAbdsAgFHj29/+tv34xz+uXC7XJ2T6KwqYaNHvrpLJpIIgUDKZ1NSpU/Xggw8SM0OECQ0AYFS47LLL7IUXXihJDYkZqWfdTRQz6XRavu/LcZz4cVMymVQYhtpvv/2ImSHGhAYAMOItX77cLly4UJLU2tqqjo4O1fv51ntb9q5XG0g9j6E8z9MBBxyg3//+98QMQQMAQP9973vfs6eeeqp831epVGrY60Y7oqSeR0/RTqZMJhOfPfPmN79Zf/jDH4iZYYBHTgCAEevuu++2H/zgB2WtValUUlNTUxwj9YpiJrqBW+p57FSpVFQul3XIIYcQM8MIExoAwIi0bt06+573vCc+Bya6UymTyfS5HLK/ksmkyuVyn6CJTJ48WU899RQxQ9AAANB/v/zlL+20adPU3d3d5xLIRCKhIAjiCyIbIbqZO51Oq1Qqad9999XmzZuJGYIGAID6eJ5n653A9I6eaI1MdA9ToVCQ9PI6mujvT5o0SStXrtTxxx9P0AwzrKEBAIwYGzZssM3Nzbb3oXf9Za1VJpNRIpGIF/xaa+OYkRTfou26riZMmKDbb7+dmBmmmNAAAEaETZs22VmzZun5559v2GtGj6gkKZvNSpLy+Xy8Hie688laq5/+9Kc67rjjiBmCBgCA/tt///3tX/7yFzU1NalQKNS96DeVSsXbvKOrDKK46f2oyfM8/fCHP9S0adOImWGM27YBAMPefvvtZ7ds2aJkMqmurq6G3JYdvYbv+wrDMI4ZY4xSqZSCIFClUiFmRgjW0AAAhrVDDjnE/vWvf5WkeCrTiKcLxWJRUs/6mOjMmebmZhljVCgU5Pu+Vq5cqRkzZhAzBA0AAP33zne+0z755JPyfV/ZbFbValWpVKohE5ro8L1KpaIwDOV5nvL5vMIwVFtbmy655BLNmzePmBkhWEMDABiWDj30UPvMM8+oXC7HUxTXdV9xyF09XNeV4zgKgkDpdFrFYlFNTU1aunSpzjvvPGKGoAEAoP+mTp1qN27c2JBgebXFw9H3o/Nloq8dx9GVV16pc889l5gZYXjkBAAYVt797nfbTZs21f8B5zh9YiaVSimRSEh6eQ1OdP5MNpuVMUZLly4lZkYodjkBAIaNOXPm2J/85CcNeS3XdSW9fMlkrVaLdzJF35N6djl1dnbqkksu0YUXXkjMjFBMaAAAw8IZZ5xhV61aJUkaN25c3a8XBIEcx4kX/0YxI718AnBLS4sqlYo++clP6qKLLiJmRjAmNACAIXfJJZfYW2+9VY7jyPd9bd++vXF/cn/pkDxJ8jxP1tp4V1NHR4c+9alP6dJLLyVmRjgWBQMAhpzjONZ13XhxbqN2MnmeF7+W53lyHCdeN5NKpXTKKadoxYoVxMwowIQGADCkZs+eba21MsaoXC5LkjKZTJ9LIvsbM73XyoRhGMdNc3Oz3v3udxMzowgTGgDAkHrd615nu7q64nuVWlpa1NHRUf8HnDHxbqbe27fHjx+vt73tbbr//vuJmVGERcEAgCGzZs0au3PnTgVBIM/z5Pu+Ojo65Pv+a3+AOc6/PDHYWhu/TnTmjCQdfvjhxMwoxCMnAMCQefrpp/vsPvK8no+l3VlDY63tc6dT77ix1sa3aWcyGVWrVVUqFZ144olau3YtMTMKMaEBAAyZzZs3S3r5zJhqtdpnV9JrBU3vmIn+ir4ulUoyxqhWq6lSqejoo48mZggaAAAaL5vNSpJyuVy/L5yM/rloO3bvyU200Pjoo4/Wz3/+c2KGoAEAoPGmTJkiSSqXy/EBeLszndnVro+fJKmpqUlhGOrII48kZsYAdjkBAIaU67o2ipjoVu09+WzqvZup12uqVqtp6tSpeuyxx4iZMYAJDQBgSB1zzDF94qS/j54iiURCyWRSBx54IDFD0AAAMDimTZumtrY2ST2Lgut5cuA4jjzPUyKR0B//+EdiZgzhkRMAYMgdfPDB9plnnonXwkQ7nV7tcVLvRcCRVCoV36a9995767nnniNmCBoAAIbgA8kYO27cuPhiykQiEZ9R47qujDF9zqdJJBJyHCe+LkHqOQV427ZtxMwYxCMnAMCwcN1112n79u2aMGGCPM9TEATx7du9Y8YYE8dOuVxWNptVKpWS53n6yU9+whs5VoOYCQ0AYLj40Y9+ZM844wy1t7fL87w4bKJ7mFKplKy1KpfLfW7S3m+//bR582YmMwQNAADDx0knnWR//OMfx187jiPHcWStjeNGkvbdd18deuihuueee4gZgoagAQAMP+vWrbN33nmnVq9eHd++bYxROp1Wc3OzjjnmGM2fP1/vf//7iRkQNACAkeHBBx+0O3fu1D777KMjjjiCiAFBAwAARhd2OQEAAIIGAACAoAEAACBoAAAAQQMAAEDQAAAAEDQAAAAEDQAAIGgAAAAIGgAAAIIGAACAoAEAAAQNAAAAQQMAAEDQAAAAEDQAAICgAQAAIGgAAAAIGgAAAIIGAAAQNAAAAAQNAAAAQQMAAEDQAAAAggYAAICgAQAAIGgAAAAIGgAAQNAAAAAQNAAAAAQNAAAAQQMAAAgaAAAAggYAAICgAQAAIGgAAABBAwAAQNAAAAAQNAAAAAQNAAAgaAAAAAgaAAAAggYAAICgAQAABA0AAABBAwAAQNAAAAAQNAAAgKABAAAgaAAAAAgaAAAAggYAABA0AAAABA0AAABBAwAAQNAAAACCBgAAgKABAAAgaAAAAAgaAABA0AAAABA0AAAABA0AAABBAwAACBoAAACCBgAAgKABAAAgaAAAAEEDAABA0AAAABA0AAAABA0AACBoAAAACBoAAACCBgAAgKABAAAEDQAAAEEDAABA0AAAABA0AACAoAEAACBoAAAACBoAAACCBgAAEDQAAAAEDQAAAEEDAABA0AAAAIIGAACAoAEAACBoAAAACBoAAEDQAAAAEDQAAAAEDQAAAEEDAAAIGgAAAIIGAACAoAEAACBoAAAAQQMAAEDQAAAAEDQAAAAEDQAAIGgAAAAIGgAAAIIGAACAoAEAAAQNAAAAQQMAAEDQAAAAEDQAAICgAQAAIGgAAAAIGgAAAIIGAAAQNAAAAAQNAAAAQQMAAEDQAAAAggYAAICgAQAAIGgAAAAIGgAAQNAAAAAQNAAAAAQNAAAAQQMAAAgaAAAAggYAAICgAQAABA1vAQAAIGgAAAAIGgAAAIIGAAAQNAAAAAQNAAAAQQMAAEDQAAAAggYAAICgAQAAIGgAAAAIGgAAQNAAAAAQNAAAAAQNAAAAQQMAAAgaAAAAggYAAICgAQAAIGgAAABBAwAAQNAAAAAQNAAAAAQNAAAgaAAAAEai/w8qNj2CzmdbSAAAAABJRU5ErkJggg==;clipPath=inset(27.33% 1% 27% 1.33%);rotation=-180;connectable=0;" vertex="1" parent="1">
          <mxGeometry x="659" y="147.17999999999998" width="40" height="18.7" as="geometry" />
        </mxCell>
        <mxCell id="FDOEPw_e3YOts03_lpH0-12" value="" style="shape=image;verticalLabelPosition=bottom;labelBackgroundColor=default;verticalAlign=top;aspect=fixed;imageAspect=0;image=data:image/png,iVBORw0KGgoAAAANSUhEUgAAAjQAAAI0CAYAAAAKi7MDAAAACXBIWXMAAA7EAAAOxAGVKw4bAAAgAElEQVR42u3debTVdb3/8dfn+/3u7x7PxBBdzRxyWdhCb+VEuvQnKzAtKpQLlDgg1k0x0kul2dwtzNJrJWpOOISSYqBlRI6lIUTZzSzNWysizUw4wBn2+N37+/n9cfx+PQct4ex95udjLdflHHMf3Ne19pP39zMYa60AAABGMoe3AAAAEDQAAAAEDQAAAEEDAAAIGgAAAIIGAACAoAEAACBoAAAAQQMAAEDQAAAAEDQAAAAEDQAAIGgAAAAIGgAAAIIGAACAoAEAAAQNAAAAQQMAAEDQAAAAEDQAAICgAQAAIGgAAAAIGgAAAIIGAAAQNAAAAAQNAAAAQQMAAEDQAAAAggYAAICgAQAAIGgAAAAIGgAAQNAAAAAQNAAAAAQNAAAAQQMAAAgaAAAAggYAAICgAQAAIGgAAABBAwAAQNAAAAAQNAAAAAQNAAAgaAAAAAgaAAAAggYAAICgAQAABA0AAABBAwAAQNAAAAAQNAAAgKABAAAgaAAAAAgaAAAAggYAABA0AAAABA0AAABBAwAAQNAAAACCBgAAgKABAAAgaAAAAAgaAABA0AAAABA0AAAABA0AAABBAwAACBoAAACCBgAAgKABAAAgaAAAAEEDAABA0AAAABA0AAAABA0AACBoAAAACBoAAACCBgAAgKABAAAEDQAAAEEDAABA0AAAABA0AACAoAEAACBoAAAACBoAAACCBgAAEDQAAAAEDQAAAEEDAABA0AAAAIIGAACAoAEAACBoAAAACBoAAEDQAAAAEDQAAAAEDQAAAEEDAAAIGgAAAIIGAACAoAEAACBoAAAAQQMAAEDQAAAAEDQAAAAEDQAAIGgAAAAIGgAAAIIGAACAoAEAAAQNAAAAQQMAAEDQAAAAEDQAAICgAQAAIGgAAAAIGgAAAIIGAAAQNAAAAAQNAAAAQQMAAEDQAAAAggYAAICgAQAAIGgAAAAIGgAAQNAAAAAQNAAAAAQNAAAgaAAAAAgaAAAAggYAAICgAQAABA0AAABBAwAAQNAAAAAQNAAAgKABAAAgaAAAAAgaAAAAggYAABA0AAAABA0AAABBAwAAQNAAAACCBgAAgKABAAAgaAAAAAgaAABA0AAAABA0AAAABA0AAABBAwAACBoAAACCBgCAgbF+/Xr72GOPWd4JvBqPtwAAMBxde+219oEHHtDDDz+s9vZ2SZLrumptbbUTJ07USSedpJNPPllHH3204d2CsZbYBQAMH6tWrbIXX3yx/vSnP/V8UJmXe2XXz6xcLqfZs2frpptuImrGOB45AQCGjc9//vN2zpw52rx5s4wxfWImipve369Wq7r55pt14IEH2g0bNvAn9DGMCQ0AYFhYsmSJ/Z//+R9ls1nl8/lXxMyuos8v13UlSclkUmvXrtVxxx3HtIagAQBg8N1www32vPPOU7lcliQlEglVq9XXDJrm5mZ1dXXJWivXdeX7vgqFAkEzBvHICQAw5D796U+rXC5rn3326fnTtnntJvE8T52dnbLWqrW1VbVaTcYYtbW12V/96lf8aZ2gAQBg8HzhC1+w27ZtUzKZ1LPPPivXdVWpVF7zn4smOK7raufOncpmsyoUCurs7NSsWbNE1IwtPHICAAypt7zlLfbPf/6zrLWqVqvyPE/VanW31tCMHz++z5Zua61yuZw6Ozs1ZcoU/fa3v+Xx0xjBhAYAMGR+9atf2c2bNysIAlWrVeVyOVWrVTnO7n08dXV1xb+u1WoKw1CdnZ1qbW3Vk08+qQMOOIA/tRM0AAAMrCeeeEKVSkXpdFqS1N3drWw2qzAMX/Of9Tyvzz8r9SwmlqSdO3cqmUxq8+bNesc73kHUEDQAAAycF154QcYYFYvF+BFT9Gtr7b/8K1pDUywW49cLgiD+da1WkyT9+te/1lFHHUXUEDQAAAyMcrksa63a2trkuq48z1MYhrv9yOlfiYLH93397ne/0+GHH07UEDQAADReS0uLUqmUduzYoVqtpmq1qmQyGU9X6hU9lsrn83r66ad1zDHHEDUEDQAAjTVlypT4xN/okVPvx0b1xlK1WlUikVAmk1E+n9fjjz+uk046iagZhdi2DQAYUuPGjbNhGKpQKMRB47puQ6Y0b3jDG/Tcc8/F1ym4rivHcfSe97xHa9asYUv3KMKEBgAwpGbPnq2Ojg4FQaAgCJTNZhv2yOkf//iHfN9XPp9XKpVSrVaTtVZ33323FixYwJ/oRxEmNACAITdp0iT74osvSpImTpyorVu31v2aiURCQRAomUzKcRxVq9X4cVY0sTnnnHN09dVXM6kZBZjQAACG3DnnnCPP85TJZLR161b5vl/3awZBIN/3VS6XVSwW47NtPM9TPp+X4zi65pprdM455/An+1GACQ0AYFg47bTT7G233Sap51qD6CwaY4yMMXGQZDKZeL1NPaIJjtRzOebSpUuZ1BA0AADUb9q0aXbTpk0KgkDW2jg4XNdVKpVSPp+Pv27UOpvW1lbt3LlTn/rUp3TppZcSNSMUj5wAAMPGQw89ZA499FA5jhM/djLGKJlMKp/Pq7m5WZJ262qE1xK9/s6dO+V5ni677DJdcMEF/CmfoAEAoH7r1683b3/725XP57XvvvvKWqtCoaBUKqXOzs74Vu16hWEYn32TSqUUhqG+853v6Etf+hJRMwLxyAkAMCz9v//3/+zPfvYzNTU1qaurS57nqVqtqrm5WZ2dnQ35GVEchWGolpYWdXZ2ylqrb37zm/r4xz/O4yeCBgCA+h122GH28ccfj9fM5HI5dXd3N+5D8KWFx70XCLe1tWnHjh361re+pcWLFxM1BA0AAPU74IAD7PPPP69kMqmuri5Za+NpTb0x4zhOHEu1Wk2u6yoMw/hn3HLLLfrQhz5E1IwArKEBAAxrf/7zn81+++0Xr5/xfb/umJF6toY7jqMwDOMdU1HMpNNpSdKpp56qm2++mT/5jwBMaAAAI8J+++1nn332WYVhqEQiEYeI4zhxjESPkBoxwfE8T2EYKgxD/fCHP9R73/teJjXDGBMaAMCI8Je//MVMnDhRUt9zaMIwjLdgW2vV1tbWkAlOtVqN4+g//uM/9OCDDzIBIGgAAKjfj370I/3bv/2bSqWScrmcpJ5JSqlUkud5khQfvlevXC4na218B9T06dP16KOPEjUEDQAA9XnHO95h1qxZo7322kvd3d1Kp9OqVqvxuppcLqdKpaJUKlX3z+ru7lYymZQk1Wo1pdNpzZw5U5s2bSJqCBoAAOpz5JFHmpUrVyqbzcbhEgVHd3e32traVCqVGvKzyuWyEomEJKlQKKharWrmzJl67LHHiBqCBgCA+hx77LFmxYoVKhaLchxHtVot3p20Y8eO+ATgekSxFG3vlnoeZ7344os644wziJphhl1OAIARa9WqVXbOnDnaa6+99Pzzz/f8Sf2lrdiNkkqlVCqV5LquEolEPP1505vepD/96U/sfCJoAACo38qVK+2HPvQhSVIymYwfE0Un//ZX72sRfN9XpVKRpPi1jTHaZ599tGXLFqJmGOCREwBgRPvgBz9orr32WqVSKZXLZUmKt3Qnk8n48ZMxJv51tNj3X6nVavGkJ4oZSXEoJRIJ/fWvf9WUKVOYDAwDTGgAAKPCzTffbBcsWKBsNqtaraZSqfSqdzVFj5AaIZvNqlqt6i1veYt+85vfMKkZQkxoAACjwplnnmmWLVumfD6vSqUSX18g9Uxbot1K0fSmXq7rKp/Pq1wu64knntBhhx3GhICgAQCgfosWLTJf+9rXFIahisWiPM+LFwn3ntREcVOPaKu41DP1+e1vf6u3vvWtRA1BAwBA/S688ELzmc98Rq7rKggCNTc3S+q5yiA6TbhRU5pisRivywmCQM8884yOO+44ooagAQCgfl/5ylfMZz/7WUnSzp0740XA0dqZRpxT03uxcalUUktLixzH0SOPPKKPfOQjRM0gY1EwAGDUWrx4sb3xxhtfsfupEdu60+l0PKGJPkuNMWpra9P27dv14Q9/WNdddx0LhQkaAADqt3DhQrt8+fL46943ddf1AfpSyHieF59UHJ1XE+2kOuecc3T11VcTNQQNAAD1mzt3rr3rrruUSqVUKBTiGMlkMioUCn1OF44O56tXFE5nn322rr/+eqJmgLGGBgAw6t1xxx3m5JNPjkPFWitjjAqFgiQpDEO1tLQok8k0JGYkyfd9SdLq1at1wQUXMD0YYExoAABjxowZM+zGjRvlOI46Ojrkuq6SyWQcNp7nyXXdhk5ootOKP/rRj+qKK65gUjNAmNAAAMaM++67zxx88MHq6OhQU1OTwjBUoVCQ53lKJpOqVquqVqsN+Vm1Wk2tra0ql8sKgkDf/OY39ZWvfIUpwgBhQgMAGHOmT59uH3jgAUl9JylBECgMw4YsHE4kEqpWq/EOqGjB8GWXXaYlS5YwqWkwJjQAgDHn/vvvNzNmzJDUcx+TMUblcjk+r8Z13bp/hud5stbGpwlHYXPxxRfriiuuYJrQYExoAABj1tSpU+3GjRvl+76stbLWqlaryXGchmztbm5uVmdnZ7ybKpVKqVKpyHEc3XjjjTr99NOZ1DQIExoAwJi1YcMGc9hhh6lSqaipqSleP9OImHFdV8ViUZJUKBSUTCZVKpXkOI6q1aoWLlyoW265halCgzChAQCMeW9+85vt//3f/2ncuHHavn17n9N/o7UvjuPI932VSqWGnDRsjJHv+7r++ut12mmnMakhaAAAqN+4cePsjh07tNdee+n555+X67pyHEdBEMhxHKXTaeXzeUk962Pq3Q3V+zVWr16tWbNmETUEDQAA9dt7773t888/r0QioTAMVavV+oSH7/tKp9Pq6Oio+2dFpxMbY5RKpXT33XdrxowZRA1BAwBA/RKJhLXWKgzD+LFT70dMve9uqlcqlZLrusrn80qlUlq9erVOPPFEoqY/gchbAADAy4IgMBMmTJC1VnvvvXf0PTU1NUlSvBuqXq7rqlQqxY+xSqWS5s+fr8cee4xJA0EDAED9rrvuOu2///7629/+Ft/J1NXVpdbW1vgSy3rVajW1tLTEX7e1tSmfz+t973ufNm7cSNTsIR45AQDwKu699147c+ZMGWM0YcIEbd26Nf570fkyjRA9zkqn0yoWizLGaJ999tGWLVt49LQHmNAAAPAq3vve95o1a9Yom81q69at8Ym/LS0tDYkZz/Mk9UxqMpmMisWiHMdRU1OT/vrXv+qggw5i4rAHmNAAAPAv3HXXXXbevHnxfU9hGPY5g8YYI2NMvGMp+nXdH9DG6JBDDtFvfvMbJjW7gQkNAAD/wuzZs833vvc9JRIJVSoVBUEg3/eVSCTkeZ4c5+WP0mhIEN0JVQ/f9/XEE0/oqKOOYvKwOwHIhAYAgNd2yy232DPPPFOe58l1XZXL5T4nCvc+r6YRt3VHURMEAZOa3cCEBgCA3XDGGWeYK6+8Uo7jqFwux+HSW+91MY1grZXjOHriiSd05JFHMoEgaAAAqN95551nzj//fCUSiZ4PUceJI6ZarSoMQ7mu+4rQ6a8gCFSr1ZRKpbRp0yYde+yxRA1BAwBA/S699FLzmc98Jl5TU61W48CJThdu1G3dUs9jp3K5LNd1tWnTJp1yyilEzatgDQ0AAP1w7rnn2h/+8Id67rnnlEwmValU1MjP1Ggdzqutx5k/f76++93vsqamFyY0AAD0w9VXX23e/e53y3XdPjETnSxcryhioklNOp1WLpeTJK1YsUJz585lIkHQAABQv+uvv94sXLiwT8xEZ9D0XkeTSqVkTM9AxXGcPlu9X0ulUpEkFYtFdXd3x99ftWqVzjzzTKKGoAEAoH7XXnutOfvssyX13brd+zFRqVSStVae5ymRSDTk4D3XdXX77bfrggsuIGrEGhoAABrilFNOsatXr1YikVCtVlMYhkqn07LWqlQqNfQU4d4SiYQ+8pGPaNmyZWN6TQ0TGgAAGuD73/++mT17toIgUDabldTzmKhUKvV84DpOHDPRvVD18DxP6XRaQRDouuuu02c/+9kxPaEgaAAAaJBVq1aZE044QV1dXXHUROtlwjCMFwxH62Lq+gB3HBWLxfjrr371q/riF784ZqOGR04AADTY9OnT7aOPPqpyuazW1lYVCgVVKhUlk8n4lOFG6h1NV155pc4777wx9/iJoAEAYAAcc8wxdv369X2+Fy0aTiQSfW7srkc2m1U+n1cymVQ6ndbOnTv13e9+V/Pnzx9TUUPQAAAwQI499lj76KOPxjETXWrZCKlUKl6fI728RqepqUldXV269dZbddppp42ZqCFoAAAYQFOmTLG/+93v4jNqom3dUYR4nqdKpdJnF1SjJjgrVqzQqaeeOiaihkXBAAAMoCeffNJMnjw5jpnW1lZJPTudwjB81QXCjbgLyvd9nXXWWbrjjjvGxOSCCQ0AAIOgqanJdnd3x4+GPM+T4zhyXTc+q8ZxHKXTaeXz+Yb93GQyqdtuu02nnHLKqJ7UEDQAAAySvffe2/7973+X67p9Hj31lslkVCgUGvLzfN9XpVJRJpPRPffco3e9612jNmoIGgAABlEqlbJBEMRraqJHTr1DplHbuz3PkzFGQRCora1Nd9xxh6ZPnz4qo4Y1NAAADKK1a9dq7733jncotbS0yBijcrksz/MkqSEx03sKlEgktGPHDp1++ulav379qJxkEDQAAAyiadOmmW9/+9uaMGGCKpWKisWirLWq1WpKpVIN+znR7d5BECgIAjmOoxdeeEFz587Vpk2bRl3U8MgJAIAhsG7dOjtv3jx1dHTEZ8qk02kVi0UZY9SIz+fx48ervb1dktTW1qYdO3ZIkvbee28999xzo+rRE0EDAMAQWbNmjZ07d258oWU+n39FzEQ7oaJzaRp1a/doixoeOQEAMERmzZplVqxYId/3lc/n4zU0Us8OpWjhcBQzvu8rkUjUHTOStHXrVu27776jZqpB0AAAMITmzJljbrvtNklStVrV+PHjJfXcyF2tVuOLJ40xqlar8anC9QqCQM8++6ze+ta3joqoIWgAABhis2fPNtdff73S6bS2bdumZDIpqef27DAM5bquUqlUPJlxXbfun2mtVSaT0VNPPaVDDjlkxEcNQQMAwDBw9tlnm0svvVRSz7btXC4XP4Kq1Woql8txyPyzQ/n2VD6fVyaT0ZNPPqmpU6eO6KghaAAAGCY+9rGPmcsuu0y+76u7u1vVarXPtKZWq8Vf1yuKpWq1qmw2q40bN+qkk04asVFD0AAAMIwsWbLEfOpTn1Jzc7OknkdD2Wy24T+nWq2qqalJlUpF+XxekyZN0n333aeZM2eOyKhh2zYAAMPQueeea1esWKGuri4lk0lVq1XVarX4fqZ6JRKJePdUtGVcklpbWzV16lStXbt2RG3pZkIDAMAwdPXVV5uFCxfG9zpls1kZY1SpVJRKpeS6bnxj9652ZxdUtVqNz7QpFArxrzs6OrRu3TqdccYZI2riwYQGAIBhbP78+fauu+6KJzSS4pOFo3hxHCeOmGhn1GsGwGtEj7VWixYt0rJly0bEpIYJDQAAw9iKFSvM3LlzVavVZIxRLpeLYyYKj1qtJmvtbsfM7kin07rqqqt07rnnjojJBxMaAABGgJNPPtmuW7dO1Wo1vmzyn8XL7twF9VoTmkQiEa/VWbJkiS677LJhPalhQgMAwAiwevVqM336dAVBoKamJllr48dNnuf1CZREIlH3z6tUKsrlcpKkyy+/XF/+8peH9QSECQ0AACPIiSeeaNetW9fne9GdT9GBe42Y0ESLka218c6qr3/96/rkJz85LCc1BA0AACPMMcccY5944gkVCgWFYdivG7h3Z1FwFEvRYuRarabLLrtMS5YsGXZRQ9AAADACTZ482b744ovavn27JMlxHFlrZa2V67pxhPQ3aFKplIrFYrxWx/O8eAHyFVdcofPPP39YRQ1BAwDACPX2t7/d/u///m/8SCiapkQ7ogbyM/6GG27QwoULh03UsCgYAIAR6te//rV529veFj92qlQqampqGpSfffbZZ+vWW28dNlMRJjQAAIxwBx10kP3jH/8oz/NUrVbj//uqH/wvPWqq9/PfdV05jqNbb71V8+bNG/JJDUEDAMAosN9++9ktW7b0WUvzz4JmTxcQ/7PXiS7OXL58uebMmTOkUUPQAAAwSuy///52y5YtfRYF9/6cj6YzjQga6eUrGFzX1X333adp06YNWdSwhgYAgFFi5cqV2muvvVStVuP7naK/orj5V9ObPdHU1BRfwZBKpXTiiSdq/fr1QzYlYUIDAMAosmHDBjtr1iy1t7f3CZiB+rx3XVfSy4f7Pfjggzr66KMHfVJD0AAAMAqj5rjjjotDJgzDhgdN9LgpkUgoCAJJPacLe56n7u7uQQ8aHjkBADDKTJ061dx7771yHCe+idvzvJ4P/pceRdUretzU+wC/IAgUhqFaW1sHfVpC0AAAMArNmDHDrFy5Uo7jyPf9+MLK6NTfRtg1jMIwVBAEqlQqOvDAAwc1anjkBADAKHbffffZE044QalUStZalcvlxobEq5xIHF2XcMQRR+gXv/jFoDx+YkIDAMAoFk1qSqWSHMfRxIkTB/xnhmGobDarTZs26bDDDhuUyQlBAwDAKDdv3jxzxRVXqFQqaevWrQ1//Vdbk1MsFpVIJPT444/rmGOOGfCo4ZETAABjxE033WTPOussZbNZ5fP5AYsZSfGt34lEQqVSSUceeaQ2btw4YI+fBiRoHnvsMZvP5xWG4WteXw4AABqvVqvJ930FQaBMJqNCoSBrrW688Ubdc889DQuZqCN2/TqZTKpcLiuZTMpaq0qlone96126//77ByRqGhI0P/3pT+1tt92mBx54QM8++2yfa8sbsTUMAAD09Vqf347Ts6okuonbWhuHTSO4rvua59tEi4ONMcrlcuru7taMGTO0bt26hsdB3UHzvve9zz7yyCPq6Ojoc3dEMpn8pzd9AgCAoQ2eRtzl9K9EExpJfW7/njhxoiZPnqyf/exnDY2auoJm//33tzt27FBHR4eMMfEzOWttfHIgExoAAAbfa33+DnTQ9N7O3XvgYYxRa2urpk2bprvuuqthkdDvoJk8ebL9wx/+EH+96/723mUGAACGV9AMxqYgY0wcM9ba+BGUJCUSCX3gAx/QnXfe2ZCo6de27RNPPNH+4Q9/UFNTk3zfl+u6qlarccD0vtkTAAAMvl0vphyMiypfLWh6r7PxPC8+sTgIAq1atUqLFy9uyG9mj88+vvPOO+0DDzwg3/fV1dX1qr95Y4wqlQr/NQEAMEZ5nqcwDPs82oraIBp6pFIpLVu2TLVazV511VV1TUL2+JHTcccdZ5966ilt27btFccd7/qbTyQSLAwGAGAIDPU5c70fL+26I8rzPNVqtfjyTM/zdNFFF+m///u/+x01exw0EyZMsO3t7Xr961+vF154QclkUtLLN2z2xjoaAADguq6MMfGxLq7rKgiCPr0QhqE+97nP6XOf+1y/omaP1tCsWrXKtre3q7W1VS+88IIcx1G5XFalUukzlfF9X5KIGQAAhki0BOSf/TXQonNwpJ5D/qInNtGN3JKUTqf7fO+LX/yirrzyyn6NlvZoDc3jjz8eH2EcbcuW+o61ehcXAAAYGkP9yOnVtoX3/j31PuQv+n4Yhvqv//ovWWvt4sWL96i69mhCEwSBgiBQpVJREATxSmUAAIA9USgU+kxootOEjTE6//zztWzZsj0qsj0KmkqlokQiIS60BAAA9fA8T8ViMb7rKbrMMggCWWuVzWb37PX25H/c3NzcZ2EPj5cAAEB/VKvVeJdTFDAdHR2SpOXLl2vBggUD98jpkEMOUalUkjGmz2IfAACAPRWGoarVqtLptPL5vJLJpJYuXbrHMSP1Y9u267o2mtD0XhgMAACw2wHy0ll20REvxhh97nOf05e+9KWB37YtSTNnzoxXLnO9AQAA6I/oMVPUEkuXLu13zPQraD70oQ/Fj5u43gAAAPSH53nK5/Mql8tatGiRLrroosG9+kCSZsyYYR966CElk0kVCgW5rivHcVStVvtcFR49mgIAAIPLWivf9+MdytESkaample9i7HRjDHyfT8+ZDe6CsHzvHhBcBiGWrRokZYtW1b3Ix/T3y3Y48aNszt27FAqlVK5XI5DpvctmgAAYGhks1nl8/l4yNB7wND7ULuBEsWU7/tyHEdBEMS/h1wup+7ubi1evFjf+ta3GrJ+xdRzpsyhhx5qn3766Xgy0/siquhfhrABAGDwWWuVy+VUqVRUqVTkum78ZGWwJBIJGWNUqVTixb/RhOass87SjTfe2LDFuKbeQ/Le+9732t/97nfasmWLpJ6RUnTJ1K7XhgMAgMERhqFc11W1Wo0Pqcvn8zLGqLW1VTt27Bjw38Mb3vAGPffcc/G0yHVdua6rk046SWvWrGnoziLTiFN/H374Ybty5Ur9/Oc/11/+8hcVi0X+SwIAYAhFEeE4jnzfV6lU6vngf2m79EBraWlRR0eHEomEEomECoWCUqmUjj/+eK1du7bh26TNQPxLbdiwwZbLZfm+H5/6BwAABk8YhvJ9X01NTXrmmWe0//77K5lM6vOf/7zWr18fr68ZSNHjJaln3cy///u/69FHHx2QM18M9zIBADA2XHvttXbRokWDugPZ930lk0m95S1v0aZNmwbsADvuLwAAYAy4+uqr7Uc/+lGFYTgo1xe5riup58y6t771rQMaMwQNAABjwDXXXGM//vGPS+rZ/dSoDTvGGKVSqfjrXC4Xn/wbBc3UqVO1YcOGAb9agEdOAACMYqtWrbJz586V67rxdQOdnZ2NjQljNG7cOLW3t0uSxo8fr/b2dh144IH64x//OCj3JDGhAQBglPre975n58yZI9/349N5Ozs75ft+Q14/2g5urY03AQeoyO0AABf5SURBVHmep/b2dh166KGDFjMSExoAAEale+65x86ZM0epVCqOmDAM411HjdB7F1P0qMkYo/33319/+tOfBvUGayY0AACMMnfeeac97bTTZK1VZ2dnfGJwtHYmuqaoHul0WtVqVel0WqlUKr47atKkSYMeMxITGgAARpWHHnrIzp8/X3//+9/7fN/zPFlrVavV+tzzVI/ovqYocCqViqrVqhmKf2+CBgCAUcR1XRuGodLptFzXVXd3d5+/P2nSJP3jH/9oyM+KHjm1trYqn89r/fr1Ovzww4ckaHjkBADAKDFx4kTrOI4cx1GlUlF3d7dyuZzS6bSknonKP/7xD2UymYb8vGQyKUmqVqu69957hyxmCBoAAEaJAw44wG7btk2O4ygMw/g04O7u7viOxejx0O7cuB2dIxPdmG2MecXuqEKhoGw2q6uuukozZswwQ/nv7/GfAAAAI9v48eNtpVKR67qqVCpx1NSj9/UI0fKUaCdTMplUtVpVGIa6/vrr9cEPftAM9XvAhAYAgBHszW9+s83n8+ru7o4vpGzEScDRY6kgCNTc3Kx0Oq1yuaxEIqFyuawwDHX77bcPi5ghaAAAGMGmTJli//a3v6lcLqu5uVnW2nhCU69CoSDXdWWMUWdnp6rVqowxCoJAyWRSV111lebNm2eGy3tB0AAAMAIdddRRdvPmzfH26yAIJPXcp9Sou5pqtZpyuVz8dbSu5utf/7rOOeccM5zeD4IGAIAR5vjjj7e/+MUvVCwW40PyooW/UdjUK7rWoKurS8lkUkEQKJ1Oa+nSpVq8eLEZbu8JQQMAwAhyyCGH2J/97GcaP368wjBUEARqbW2V1LNYt1wux5OUeuTz+XgdTblcViaT0cc+9jF9+tOfNsPxfSFoAAAYIaZNm2affvpp+b6v9vb2eBv1zp07JfVMZxzH6bNDqb+SyaQKhUK8bXvJkiX66le/aobre0PQAAAwAixYsMA+/PDD8VRGevlcmUgYhru9fqb3FCd6bBVNZDzPi/++tVZLlizRl7/8ZTOc3x+uPgAAYJibO3euXbNmjVKplLq6umSMUSM+v1/tdSZOnKitW7fGoXPqqafqpptuMsP9PWJCAwDAMHbmmWfaO++8U9VqVV1dXQ173VwuJ2ttPImJdjNt3bpVzc3NkqTTTz99RMQMQQMAwDB2wQUX2FtuuUWtra19JimNmM5E1x/UajWNGzcuvsSytbVVnZ2dOvvss3XDDTeYkfJe8cgJAIBh6BOf+IS9/PLL42sGooW+jbjW4NW4rqtMJqOuri7NmTNHd9xxhxlJ7xcTGgAAhpmLL77YXn755Ro/frzK5bJqtVp8s3UjtmRLPetnEolEvCC4paVFXV1dmjFjxoiLGYkJDQAAw8qll15qL774Yhlj4qlMS0uLOjo6lMlkFARBww7Pa25uVmdnp1KplEqlko444gj94he/MCPxfSNoAAAYJq666ip73nnnyRgj13Xj+5OstfGheVLP7qN6oyZ6jeh1p0+frvvuu8+M1PeOR04AAAwDV199tb3wwgslKV43I728ADiKGWn3rzdoaWmJf51Op+NLKx3HkTEmft2jjjpqRMeMxIQGAIAh9/3vf9/Onj1biURCjuP0iZf+ymQy8U6mpqameMt3NJmJHjMdfPDB+v3vf29G+ntI0AAAMAxixnXdeM2M7/uvOAW4P3bdEZXL5dTd3a3W1lbt3LlTb3zjG7VlyxYzGt5HHjkBADBE7rnnHjt79uz4/iVjjJLJZENiRuq7I6qtrU3d3d3aa6+9tHPnTr3pTW8aNTEjMaEBAGBIfP/737fz5s2TtTaezHiep2q12pBFv70XESeTSdVqtfhnHXTQQXrmmWfMaHo/mdAAADDI7r33XvuRj3wkfsyUTCaVSCRUrVblum5DtmVXKpV4QhOGYXw43+tf/3rdfPPNo+49ZUIDAMAgevTRR+0HPvABbd++XY7jyFqrdDqtQqEgx3GUyWTiawgawXXdeNu34zjq7u42o/F9ZUIDAMAgWb9+vZ05c6Z27NihXC6nMAxlrVWhUJDv+5Kk7u7u+PTeRvB9X2EYKpPJaO3ataP2vSVoAAAYBI899pidO3euOjo64nDprVKpxDuSdueRUxRA0eRF6lmDE0mlUvFrtbS06JZbbtGxxx5rRuv7yyMnAAAGwRvf+Eb77LPPxhHSiLNmem/vjhYU9zZ+/Hi1t7frJz/5iWbMmGFG8/vr8Z8YAAADa9y4cbb3RKYRMSMpnuj0Pvm39+F87e3tuvvuu0d9zEg8cgIAYEC97nWvs8ViMb7CIJ1ON+y1o4lM723evu+rXC4rl8tp+fLlev/732/GwvtM0AAAMEDe8IY32Pb29viiSUkNOzRPUrwrKpr4+L6vfD4v3/f15S9/WQsWLDBj5b0maAAAGACHH364zefzcl1X+XxeUs86l95XETRCFDOO46hSqSiXy+kb3/iGLrjgAjOW3m/W0AAAMAAx86tf/UrGmD5bsFOpVLwtu97D83a9p8lxHE2YMEELFy7U4sWLzVh7z5nQAADQQO985zvtr3/9a+VyOVlrValUlEgklEgkGnpgnjFGxhi5rivHceR5ns466ywtXbrUjMX3naABAKBBZsyYYTds2BBPYiJBEPSZyOzOdCaRSMTnyriuq2QyKenls2ZqtZpSqZSstUokEjr33HN1ySWXmLH63nMODQAADXDCCSfYDRs2SJK6uroa9rrZbFa1Wk2lUknGmPhm7nQ6rVKpJGutPvGJT+gb3/iGGcvvP2toAACo0/z58+1Pf/rThu5gSqVSKpVK8YLi6GTgSqUi3/fjmFm8ePGYjxmJR04AANTlwx/+sL3tttvi4Oh9/UA9SqVSn8dMQRCoUqnIcZz4wslFixbpW9/6luH/CwQNAAD9duGFF9obbrhBuVwuXjMT3aFUL2OMyuWy0um0jDGy1sp1XRljVCwWtWDBAi1btoyYIWgAAOi/iy++2H79619XS0tLHDOu6zbstuxoOhMtKE4mk0omk6rVapo3b56WL19OzPQOQBYFAwCwZy699FJ70UUXKZFIyBgTb82u1WoKw/AVZ8T0l+/7chxHpVIp3pp9wgkn6Ac/+AExswsmNAAA7IFrrrnGXnTRRWppaVEQBKrVan0Oystmsw2JmUQioUqlolKppLa2NoVhqKOPPpqY+SeY0AAAsJuuvPJKu3jxYrmuq1qtVvfrpdNpFYvF+Ou2tjbt2LFDrusqDENZa9Xc3KzOzk4df/zxeuihh4gZggYAgP77zne+Y88555w4MOrV+7FUMplUGIYKgqBPzIwbN07bt2/X5MmT9dRTTxEzBA0AAP1366232jPOOGNgPohf2sEUnfpbq9VUrVbjc2iIGYIGAICGxUwmk5EkFQoFeZ6narXakNeP7mIKw1C1Wk2O4yidTiufz+vggw/W73//e2JmN7AoGACAf+Kee+6xZ511liSpXC6rUCj0fHg69X98GmOUTqfjO5miNTnjxo1TPp/XQQcdRMwQNAAA1Oeuu+6yJ598smq1mjKZTBwcra2tDbviIFpDE939NGnSJG3btk1TpkzRM888Q8zsSSDyyAkAgL5+/OMf25NPPlnWWpXLZTmOE+846ujoaOjPymQy8TUHxWJRbW1t2r59OzFD0AAA0H8PP/ywnTNnjrZt2ybHceQ4Tp/1MtEi3no5jiNjjGq1mrLZrPL5vMaPH69t27YRM/15P3kLAADosX79ejtr1ixt27ZNUs8joV0X/+5uzLiuGwdQb7tei5DJZJTP5zVu3DitXr2a/yf0ExMaAAAkbdy40Z5wwgnq6uqKb7eua2LQ65yZ3nETbc3u/b9LpVK69957dfzxxzOdIWgAAOi/trY2m8/nJSneQt2ooImmNNFnbvT3olu6f/CDH2jmzJnETD3vN28BAGCsmzRpkt25c6fS6bSq1WpDrjUIw1Ce58ULiqOYMcYokUjEN3OvXbuWmCFoAACoz0EHHWRffPFFua6rzs5ONfLJRe/1M8aY+JFTuVyW53m66aabdOKJJxIzBA0AAP134IEH2ueff17Nzc2q1Wpqbm6W9MqFu/1lrY0fO3meF8dSKpXS5ZdfrjPPPJOYaRCPtwAAMBYdccQRdsuWLfEuplwup87OzoYsCJZ6JjJRzEiKf87kyZM1a9YsLVq0iJhpICY0AIAx5/jjj7e//OUvZYxRMpmUJHV3d8d3NKXT6bp/Ru/pTCKRkLVWyWRS73nPe/TVr36VmGkwdjkBAMaUGTNm2Pvvv78hr+W6bnyhpOu68WQnOjSvd9Rks1mdf/75+spXvkLMDAAeOQEAxoxTTjnF3n///cpkMvFFk40QhqHCMJTv+/I8T+VyOd4p5fu+JOnDH/4wMTOAmNAAAMaEE044wT7yyCOqVCp91rbUK5rSxB+sL01mjDHxKcD/+Z//qe985zvEzABiDQ0AYNSbOXOmfeSRRxQEgVzXfcV1BP0NmShgonU40suH53mep3w+r49+9KPEDEEDAEB95syZYx9++OH4ygFrbRwjjQiaWq2mcrksqefxkjFG6XRaQRBo3rx5uuaaa4gZggYAgP47/fTT7Y9//GOVy2WVy+X45uxGPHKqVCqS+p5ZE50KXC6XtWDBAq1cuZKYGSQsCgYAjEqf/vSn7V133aVisSipZ6IS3aHUiEdO8Qep58VxUyqVlM1m9b73vU/Lly8nZgYRExoAwKizdOlS+7WvfU3FYlG5XE5Sz6Oh6PqBRtzV5Dg9H6GVSiV+XWOMjjvuON1+++3EDEEDAED/XXzxxfYLX/hC/HV3d3f860qlstt3NfU+XM/zeh5oRGtkjDHx96LLJq21mj59un70ox8RM0OAbdsAgFHj29/+tv34xz+uXC7XJ2T6KwqYaNHvrpLJpIIgUDKZ1NSpU/Xggw8SM0OECQ0AYFS47LLL7IUXXihJDYkZqWfdTRQz6XRavu/LcZz4cVMymVQYhtpvv/2ImSHGhAYAMOItX77cLly4UJLU2tqqjo4O1fv51ntb9q5XG0g9j6E8z9MBBxyg3//+98QMQQMAQP9973vfs6eeeqp831epVGrY60Y7oqSeR0/RTqZMJhOfPfPmN79Zf/jDH4iZYYBHTgCAEevuu++2H/zgB2WtValUUlNTUxwj9YpiJrqBW+p57FSpVFQul3XIIYcQM8MIExoAwIi0bt06+573vCc+Bya6UymTyfS5HLK/ksmkyuVyn6CJTJ48WU899RQxQ9AAANB/v/zlL+20adPU3d3d5xLIRCKhIAjiCyIbIbqZO51Oq1Qqad9999XmzZuJGYIGAID6eJ5n653A9I6eaI1MdA9ToVCQ9PI6mujvT5o0SStXrtTxxx9P0AwzrKEBAIwYGzZssM3Nzbb3oXf9Za1VJpNRIpGIF/xaa+OYkRTfou26riZMmKDbb7+dmBmmmNAAAEaETZs22VmzZun5559v2GtGj6gkKZvNSpLy+Xy8Hie688laq5/+9Kc67rjjiBmCBgCA/tt///3tX/7yFzU1NalQKNS96DeVSsXbvKOrDKK46f2oyfM8/fCHP9S0adOImWGM27YBAMPefvvtZ7ds2aJkMqmurq6G3JYdvYbv+wrDMI4ZY4xSqZSCIFClUiFmRgjW0AAAhrVDDjnE/vWvf5WkeCrTiKcLxWJRUs/6mOjMmebmZhljVCgU5Pu+Vq5cqRkzZhAzBA0AAP33zne+0z755JPyfV/ZbFbValWpVKohE5ro8L1KpaIwDOV5nvL5vMIwVFtbmy655BLNmzePmBkhWEMDABiWDj30UPvMM8+oXC7HUxTXdV9xyF09XNeV4zgKgkDpdFrFYlFNTU1aunSpzjvvPGKGoAEAoP+mTp1qN27c2JBgebXFw9H3o/Nloq8dx9GVV16pc889l5gZYXjkBAAYVt797nfbTZs21f8B5zh9YiaVSimRSEh6eQ1OdP5MNpuVMUZLly4lZkYodjkBAIaNOXPm2J/85CcNeS3XdSW9fMlkrVaLdzJF35N6djl1dnbqkksu0YUXXkjMjFBMaAAAw8IZZ5xhV61aJUkaN25c3a8XBIEcx4kX/0YxI718AnBLS4sqlYo++clP6qKLLiJmRjAmNACAIXfJJZfYW2+9VY7jyPd9bd++vXF/cn/pkDxJ8jxP1tp4V1NHR4c+9alP6dJLLyVmRjgWBQMAhpzjONZ13XhxbqN2MnmeF7+W53lyHCdeN5NKpXTKKadoxYoVxMwowIQGADCkZs+eba21MsaoXC5LkjKZTJ9LIvsbM73XyoRhGMdNc3Oz3v3udxMzowgTGgDAkHrd615nu7q64nuVWlpa1NHRUf8HnDHxbqbe27fHjx+vt73tbbr//vuJmVGERcEAgCGzZs0au3PnTgVBIM/z5Pu+Ojo65Pv+a3+AOc6/PDHYWhu/TnTmjCQdfvjhxMwoxCMnAMCQefrpp/vsPvK8no+l3VlDY63tc6dT77ix1sa3aWcyGVWrVVUqFZ144olau3YtMTMKMaEBAAyZzZs3S3r5zJhqtdpnV9JrBU3vmIn+ir4ulUoyxqhWq6lSqejoo48mZggaAAAaL5vNSpJyuVy/L5yM/rloO3bvyU200Pjoo4/Wz3/+c2KGoAEAoPGmTJkiSSqXy/EBeLszndnVro+fJKmpqUlhGOrII48kZsYAdjkBAIaU67o2ipjoVu09+WzqvZup12uqVqtp6tSpeuyxx4iZMYAJDQBgSB1zzDF94qS/j54iiURCyWRSBx54IDFD0AAAMDimTZumtrY2ST2Lgut5cuA4jjzPUyKR0B//+EdiZgzhkRMAYMgdfPDB9plnnonXwkQ7nV7tcVLvRcCRVCoV36a9995767nnniNmCBoAAIbgA8kYO27cuPhiykQiEZ9R47qujDF9zqdJJBJyHCe+LkHqOQV427ZtxMwYxCMnAMCwcN1112n79u2aMGGCPM9TEATx7du9Y8YYE8dOuVxWNptVKpWS53n6yU9+whs5VoOYCQ0AYLj40Y9+ZM844wy1t7fL87w4bKJ7mFKplKy1KpfLfW7S3m+//bR582YmMwQNAADDx0knnWR//OMfx187jiPHcWStjeNGkvbdd18deuihuueee4gZgoagAQAMP+vWrbN33nmnVq9eHd++bYxROp1Wc3OzjjnmGM2fP1/vf//7iRkQNACAkeHBBx+0O3fu1D777KMjjjiCiAFBAwAARhd2OQEAAIIGAACAoAEAACBoAAAAQQMAAEDQAAAAEDQAAAAEDQAAIGgAAAAIGgAAAIIGAACAoAEAAAQNAAAAQQMAAEDQAAAAEDQAAICgAQAAIGgAAAAIGgAAAIIGAAAQNAAAAAQNAAAAQQMAAEDQAAAAggYAAICgAQAAIGgAAAAIGgAAQNAAAAAQNAAAAAQNAAAAQQMAAAgaAAAAggYAAICgAQAAIGgAAABBAwAAQNAAAAAQNAAAAAQNAAAgaAAAAAgaAAAAggYAAICgAQAABA0AAABBAwAAQNAAAAAQNAAAgKABAAAgaAAAAAgaAAAAggYAABA0AAAABA0AAABBAwAAQNAAAACCBgAAgKABAAAgaAAAAAgaAABA0AAAABA0AAAABA0AAABBAwAACBoAAACCBgAAgKABAAAgaAAAAEEDAABA0AAAABA0AAAABA0AACBoAAAACBoAAACCBgAAgKABAAAEDQAAAEEDAABA0AAAABA0AACAoAEAACBoAAAACBoAAACCBgAAEDQAAAAEDQAAAEEDAABA0AAAAIIGAACAoAEAACBoAAAACBoAAEDQAAAAEDQAAAAEDQAAAEEDAAAIGgAAAIIGAACAoAEAACBoAAAAQQMAAEDQAAAAEDQAAAAEDQAAIGgAAAAIGgAAAIIGAACAoAEAAAQNAAAAQQMAAEDQAAAAEDQAAICgAQAAIGgAAAAIGgAAAIIGAAAQNAAAAAQNAAAAQQMAAEDQAAAAggYAAICgAQAAIGgAAAAIGgAAQNAAAAAQNAAAAAQNAAAAQQMAAAgaAAAAggYAAICgAQAABA1vAQAAIGgAAAAIGgAAAIIGAAAQNAAAAAQNAAAAQQMAAEDQAAAAggYAAICgAQAAIGgAAAAIGgAAQNAAAAAQNAAAAAQNAAAAQQMAAAgaAAAAggYAAICgAQAAIGgAAABBAwAAQNAAAAAQNAAAAAQNAAAgaAAAAEai/w8qNj2CzmdbSAAAAABJRU5ErkJggg==;clipPath=inset(27.33% 1% 27% 1.33%);rotation=-180;connectable=0;" vertex="1" parent="1">
          <mxGeometry x="549" y="147.17999999999998" width="40" height="18.7" as="geometry" />
        </mxCell>
        <mxCell id="FDOEPw_e3YOts03_lpH0-13" value="kube-proxy" style="text;html=1;align=center;verticalAlign=middle;whiteSpace=wrap;rounded=0;" vertex="1" parent="1">
          <mxGeometry x="396" y="270" width="74" height="20" as="geometry" />
        </mxCell>
        <mxCell id="FDOEPw_e3YOts03_lpH0-19" style="edgeStyle=orthogonalEdgeStyle;rounded=0;orthogonalLoop=1;jettySize=auto;html=1;exitX=1;exitY=0.5;exitDx=0;exitDy=0;" edge="1" parent="1" source="FDOEPw_e3YOts03_lpH0-15" target="FDOEPw_e3YOts03_lpH0-13">
          <mxGeometry relative="1" as="geometry">
            <mxPoint x="381.0526315789473" y="280.0000000000001" as="targetPoint" />
          </mxGeometry>
        </mxCell>
        <mxCell id="FDOEPw_e3YOts03_lpH0-15" value="" style="rounded=1;whiteSpace=wrap;html=1;" vertex="1" parent="1">
          <mxGeometry x="271" y="277" width="90" height="53" as="geometry" />
        </mxCell>
        <mxCell id="FDOEPw_e3YOts03_lpH0-16" value="clusterIP svc:&lt;div&gt;webnodb&lt;/div&gt;" style="text;html=1;align=center;verticalAlign=middle;whiteSpace=wrap;rounded=0;" vertex="1" parent="1">
          <mxGeometry x="276" y="277" width="78" height="30" as="geometry" />
        </mxCell>
        <mxCell id="FDOEPw_e3YOts03_lpH0-18" value="" style="shape=mxgraph.cisco.computers_and_peripherals.pc;html=1;pointerEvents=1;dashed=0;fillColor=#036897;strokeColor=#ffffff;strokeWidth=2;verticalLabelPosition=bottom;verticalAlign=top;align=center;outlineConnect=0;" vertex="1" parent="1">
          <mxGeometry x="680" y="302" width="40" height="43" as="geometry" />
        </mxCell>
        <mxCell id="FDOEPw_e3YOts03_lpH0-20" value="HTTP&amp;nbsp;&lt;div&gt;proxy server&lt;/div&gt;" style="text;html=1;align=center;verticalAlign=middle;whiteSpace=wrap;rounded=0;" vertex="1" parent="1">
          <mxGeometry x="589" y="310.5" width="100" height="17" as="geometry" />
        </mxCell>
        <mxCell id="FDOEPw_e3YOts03_lpH0-26" style="edgeStyle=orthogonalEdgeStyle;rounded=0;orthogonalLoop=1;jettySize=auto;html=1;entryX=0.793;entryY=-0.073;entryDx=0;entryDy=0;entryPerimeter=0;" edge="1" parent="1" source="FDOEPw_e3YOts03_lpH0-23" target="FDOEPw_e3YOts03_lpH0-25">
          <mxGeometry relative="1" as="geometry" />
        </mxCell>
        <mxCell id="FDOEPw_e3YOts03_lpH0-23" value="kubelet" style="text;html=1;align=center;verticalAlign=middle;whiteSpace=wrap;rounded=0;" vertex="1" parent="1">
          <mxGeometry x="447" y="260" width="100" height="20" as="geometry" />
        </mxCell>
        <mxCell id="FDOEPw_e3YOts03_lpH0-24" value="" style="rounded=1;whiteSpace=wrap;html=1;" vertex="1" parent="1">
          <mxGeometry x="378.5" y="308.5" width="150" height="30" as="geometry" />
        </mxCell>
        <mxCell id="FDOEPw_e3YOts03_lpH0-28" style="edgeStyle=orthogonalEdgeStyle;rounded=0;orthogonalLoop=1;jettySize=auto;html=1;exitX=1;exitY=0.5;exitDx=0;exitDy=0;entryX=0;entryY=0.75;entryDx=0;entryDy=0;" edge="1" parent="1" source="FDOEPw_e3YOts03_lpH0-25" target="FDOEPw_e3YOts03_lpH0-20">
          <mxGeometry relative="1" as="geometry" />
        </mxCell>
        <mxCell id="FDOEPw_e3YOts03_lpH0-25" value="master node:&amp;nbsp;API server&amp;nbsp;" style="text;html=1;align=center;verticalAlign=middle;whiteSpace=wrap;rounded=0;" vertex="1" parent="1">
          <mxGeometry x="383.5" y="308.5" width="143" height="30" as="geometry" />
        </mxCell>
        <mxCell id="FDOEPw_e3YOts03_lpH0-30" value="" style="rounded=1;whiteSpace=wrap;html=1;" vertex="1" parent="1">
          <mxGeometry x="404.5" y="172" width="84" height="62.88" as="geometry" />
        </mxCell>
        <mxCell id="FDOEPw_e3YOts03_lpH0-31" value="container:&lt;div&gt;webnodb&amp;nbsp;&lt;span style=&quot;color: rgba(0, 0, 0, 0); font-family: monospace; font-size: 0px; text-align: start; text-wrap-mode: nowrap;&quot;&gt;%3CmxGraphModel%3E%3Croot%3E%3CmxCell%20id%3D%220%22%2F%3E%3CmxCell%20id%3D%221%22%20parent%3D%220%22%2F%3E%3CmxCell%20id%3D%222%22%20value%3D%22cluster%3A%20net4255%22%20style%3D%22text%3Bhtml%3D1%3Balign%3Dcenter%3BverticalAlign%3Dmiddle%3BwhiteSpace%3Dwrap%3Brounded%3D0%3B%22%20vertex%3D%221%22%20parent%3D%221%22%3E%3CmxGeometry%20x%3D%22250%22%20y%3D%2275%22%20width%3D%22130%22%20height%3D%2230%22%20as%3D%22geometry%22%2F%3E%3C%2FmxCell%3E%3C%2Froot%3E%3C%2FmxGraphModel%3E&lt;/span&gt;&lt;/div&gt;" style="text;html=1;align=center;verticalAlign=middle;whiteSpace=wrap;rounded=0;" vertex="1" parent="1">
          <mxGeometry x="381.5" y="173.94" width="130" height="30" as="geometry" />
        </mxCell>
        <mxCell id="FDOEPw_e3YOts03_lpH0-33" style="edgeStyle=orthogonalEdgeStyle;rounded=0;orthogonalLoop=1;jettySize=auto;html=1;exitX=0.75;exitY=1;exitDx=0;exitDy=0;entryX=0.641;entryY=-0.009;entryDx=0;entryDy=0;entryPerimeter=0;" edge="1" parent="1" source="FDOEPw_e3YOts03_lpH0-5" target="FDOEPw_e3YOts03_lpH0-25">
          <mxGeometry relative="1" as="geometry" />
        </mxCell>
        <mxCell id="FDOEPw_e3YOts03_lpH0-34" value="10.43.60.188" style="text;html=1;align=center;verticalAlign=middle;whiteSpace=wrap;rounded=0;" vertex="1" parent="1">
          <mxGeometry x="285" y="303.5" width="60" height="30" as="geometry" />
        </mxCell>
        <mxCell id="FDOEPw_e3YOts03_lpH0-35" value="10.42.1.158" style="text;html=1;align=center;verticalAlign=middle;whiteSpace=wrap;rounded=0;" vertex="1" parent="1">
          <mxGeometry x="417.5" y="234.88" width="60" height="30" as="geometry" />
        </mxCell>
      </root>
    </mxGraphModel>
  </diagram>
</mxfile>
